HIERARCHY
ROOT RootJoint
{
    OFFSET   0.000000   0.000000   0.000000
    CHANNELS 6 Xposition Yposition Zposition Xrotation Yrotation Zrotation
    JOINT pelvis_lowerback
    {
        OFFSET   0.000000   0.093605   0.000000
        CHANNELS 3 Xrotation Yrotation Zrotation
        JOINT lowerback_torso
        {
            OFFSET   0.000000   0.100000   0.000000
            CHANNELS 3 Xrotation Yrotation Zrotation
            JOINT torso_head
            {
                OFFSET   0.000000   0.282350   0.000000
                CHANNELS 3 Xrotation Yrotation Zrotation
                End Site
                {
                    OFFSET   0.000000   0.192650   0.000000
                }
            }
            JOINT rTorso_Clavicle
            {
                OFFSET  -0.001000   0.157500   0.000000
                CHANNELS 3 Xrotation Yrotation Zrotation
                JOINT rShoulder
                {
                    OFFSET  -0.117647   0.000000   0.000000
                    CHANNELS 3 Xrotation Yrotation Zrotation
                    JOINT rElbow
                    {
                        OFFSET  -0.245000   0.000000   0.000000
                        CHANNELS 3 Xrotation Yrotation Zrotation
                        JOINT rWrist
                        {
                            OFFSET  -0.240000   0.000000   0.000000
                            CHANNELS 3 Xrotation Yrotation Zrotation
                            End Site
                            {
                                OFFSET  -0.116353  -0.002500   0.000000
                            }
                        }
                    }
                }
            }
            JOINT lTorso_Clavicle
            {
                OFFSET   0.001000   0.157500   0.000000
                CHANNELS 3 Xrotation Yrotation Zrotation
                JOINT lShoulder
                {
                    OFFSET   0.117647   0.000000   0.000000
                    CHANNELS 3 Xrotation Yrotation Zrotation
                    JOINT lElbow
                    {
                        OFFSET   0.245000   0.000000   0.000000
                        CHANNELS 3 Xrotation Yrotation Zrotation
                        JOINT lWrist
                        {
                            OFFSET   0.240000   0.000000   0.000000
                            CHANNELS 3 Xrotation Yrotation Zrotation
                            End Site
                            {
                                OFFSET   0.116353  -0.002500   0.000000
                            }
                        }
                    }
                }
            }
        }
    }
    JOINT rHip
    {
        OFFSET  -0.100000  -0.051395   0.000000
        CHANNELS 3 Xrotation Yrotation Zrotation
        JOINT rKnee
        {
            OFFSET   0.000000  -0.410000   0.000000
            CHANNELS 3 Xrotation Yrotation Zrotation
            JOINT rAnkle
            {
                OFFSET   0.000000  -0.390000   0.000000
                CHANNELS 3 Xrotation Yrotation Zrotation
                JOINT rToeJoint
                {
                    OFFSET   0.000000  -0.050000   0.130000
                    CHANNELS 3 Xrotation Yrotation Zrotation
                    End Site
                    {
                        OFFSET  -0.010000   0.002000   0.060000
                    }
                }
            }
        }
    }
    JOINT lHip
    {
        OFFSET   0.100000  -0.051395   0.000000
        CHANNELS 3 Xrotation Yrotation Zrotation
        JOINT lKnee
        {
            OFFSET   0.000000  -0.410000   0.000000
            CHANNELS 3 Xrotation Yrotation Zrotation
            JOINT lAnkle
            {
                OFFSET   0.000000  -0.390000   0.000000
                CHANNELS 3 Xrotation Yrotation Zrotation
                JOINT lToeJoint
                {
                    OFFSET   0.000000  -0.050000   0.130000
                    CHANNELS 3 Xrotation Yrotation Zrotation
                    End Site
                    {
                        OFFSET   0.010000   0.002000   0.060000
                    }
                }
            }
        }
    }
}
MOTION
Frames: 15
Frame Time:   0.008333
 -2.354875   0.895562   4.973588  -1.366213 -14.309652   6.862681   0.393824   5.290125  -4.251638   5.886553   0.841770   0.757325  -0.818262   1.046823   3.467586   3.876057   2.403006  26.867019   5.181319  11.553376  22.870058  -0.000804  23.224250  -0.002042  20.301968   2.063146  -3.234523   5.803318   1.899109 -25.302373  11.004963  -3.939347 -33.445480   0.000098 -20.346154   0.000074   9.901950  -3.157854  -1.627807  18.296743   5.104506  -9.470416  18.180369   0.008803   0.002721  -8.782529   3.100495  -0.519957 -34.530325  -0.004192  -0.008742 -13.452133   4.426130  -5.311259   8.135668   0.006059  -0.006808   1.361048  11.828888   2.153767  -1.135027  -0.000738  -0.001953
 -2.353396   0.896466   4.982754  -1.435797 -14.295025   6.955252   0.469395   5.247592  -4.425337   5.824677   0.839163   0.751862  -0.777403   1.068898   3.574289   3.879140   2.329361  26.843467   5.197636  11.410794  23.132644  -0.000821  23.032715  -0.001890  20.230449   2.037731  -3.208140   5.799440   1.850942 -25.187467  10.875270  -3.865336 -33.381041  -0.000060 -20.433068  -0.000032  10.161168  -3.222554  -1.600351  17.725890   5.200415  -9.689148  20.364408   0.010619   0.001501  -7.727962   3.077812  -0.373546 -35.576186  -0.002379  -0.006604 -12.880379   4.122796  -5.739776   8.198058   0.004977  -0.005607   1.552273  11.689859   2.398077  -1.001863  -0.000787  -0.002114
 -2.352073   0.897469   4.991963  -1.558520 -14.178505   6.995526   0.536181   5.153932  -4.578036   5.788809   0.801439   0.771898  -0.729469   1.088303   3.679809   3.898864   2.243944  26.818924   5.219460  11.268737  23.387052  -0.000805  22.854809  -0.001742  20.162213   2.034741  -3.160112   5.793924   1.802017 -25.045482  10.754157  -3.797525 -33.305542  -0.000213 -20.518733  -0.000128  10.106478  -3.303779  -1.589244  17.119789   5.270919  -9.812948  22.682408   0.012251   0.001348  -6.621618   3.046551  -0.223048 -35.740722  -0.001691  -0.005244 -12.210581   3.793584  -6.135722   8.162263   0.003917  -0.004417   1.663851  11.549181   2.648799  -0.901067  -0.000764  -0.002021
 -2.350850   0.898434   5.001210  -1.688990 -13.986612   7.016856   0.574416   5.042472  -4.719032   5.750705   0.741988   0.801752  -0.684338   1.105724   3.778109   3.935128   2.145368  26.792476   5.247495  11.121556  23.626897  -0.000754  22.685094  -0.001597  20.096212   2.025526  -3.098098   5.787677   1.757149 -24.885049  10.640497  -3.732028 -33.218507  -0.000351 -20.599716  -0.000230  10.063068  -3.389529  -1.559254  16.543693   5.335210  -9.890596  24.935901   0.013775   0.002274  -5.502983   3.023159  -0.069843 -35.078126  -0.002180  -0.004119 -11.527720   3.475471  -6.509379   8.108520   0.003034  -0.003481   1.746312  11.417511   2.887769  -0.816791  -0.000711  -0.001815
 -2.349690   0.899305   5.010455  -1.810537 -13.746666   7.037276   0.588396   4.927789  -4.855275   5.702657   0.672716   0.832211  -0.645027   1.121864   3.868729   3.979395   2.041520  26.763284   5.278524  10.974290  23.849826  -0.000678  22.523541  -0.001448  20.032084   2.003089  -3.031521   5.779952   1.715420 -24.714633  10.533308  -3.669454 -33.123418  -0.000466 -20.675761  -0.000329  10.029423  -3.472718  -1.506638  16.005592   5.398740  -9.948177  27.074183   0.015131   0.003691  -4.393548   3.010708   0.083574 -33.756382  -0.003499  -0.002561 -10.861304   3.175084  -6.869889   8.061604   0.002340  -0.002768   1.819957  11.295665   3.110888  -0.742266  -0.000645  -0.001576
 -2.348573   0.900058   5.019658  -1.917175 -13.476857   7.065412   0.584701   4.816427  -4.989781   5.644865   0.600707   0.858626  -0.611215   1.136960   3.952066   4.024713   1.938903  26.731360   5.309647  10.832114  24.055392  -0.000589  22.371164  -0.001292  19.970027   1.971288  -2.967935   5.770116   1.675583 -24.541264  10.431703  -3.610893 -33.024340  -0.000552 -20.747246  -0.000418  10.003770  -3.552757  -1.435415  15.503491   5.461985  -9.998368  29.083611   0.016232   0.005170  -3.306051   3.006695   0.234648 -31.921439  -0.005125  -0.000380 -10.221830   2.893081  -7.222432   8.029367   0.001813  -0.002217   1.892700  11.183075   3.317743  -0.674826  -0.000576  -0.001340
 -2.347489   0.900686   5.028790  -2.006707 -13.188415   7.105048   0.568665   4.711471  -5.123423   5.579391   0.529989   0.878988  -0.581909   1.151105   4.028732   4.066896   1.841476  26.697258   5.339033  10.698317  24.244248  -0.000498  22.228641  -0.001130  19.910287   1.935765  -2.911797   5.758074   1.636832 -24.370163  10.335148  -3.557055 -32.924741  -0.000611 -20.814606  -0.000493   9.984473  -3.630776  -1.351363  15.033855   5.524605 -10.047179  30.961994   0.017032   0.006492  -2.248309   3.008227   0.381529 -29.685242  -0.006590   0.002344  -9.612939   2.628873  -7.569501   8.013602   0.001423  -0.001780   1.967413  11.079034   3.509012  -0.613206  -0.000509  -0.001122
 -2.346361   0.901559   5.037423  -2.135004 -13.084081   7.106214   0.671527   4.627439  -5.207549   5.542734   0.526349   0.903714  -0.566027   1.153202   4.082788   4.042083   1.813007  26.594992   5.343817  10.584949  24.468351  -0.000428  22.152258  -0.000956  19.840964   1.914778  -2.851572   5.754230   1.486193 -24.207217  10.258676  -3.561922 -32.858944  -0.000904 -21.037940  -0.000369   9.973428  -3.535459  -1.310131  14.159375   5.383370 -10.152741  33.684904   0.015499  -0.001926  -1.827666   2.600587   0.470058 -27.092918   0.000045  -0.012812  -8.856198   2.410597  -7.876352   7.815891   0.000758  -0.001332   1.797752  10.835633   3.811548  -0.450603  -0.000601  -0.001354
 -2.345334   0.902511   5.045918  -2.284131 -12.995903   7.048468   0.780416   4.515433  -5.243678   5.528960   0.507458   0.953555  -0.538542   1.154544   4.137956   4.008673   1.795002  26.488288   5.343806  10.490445  24.674283  -0.000361  22.088581  -0.000828  19.777037   1.940658  -2.798647   5.731101   1.324594 -24.054550  10.176351  -3.588880 -32.802272  -0.001127 -21.259981  -0.000147   9.961753  -3.504392  -1.295839  13.265647   5.229716 -10.222703  36.342320   0.013212  -0.009534  -1.432798   2.213569   0.554451 -24.752664   0.003931  -0.024525  -8.055025   2.174582  -8.114531   7.564093   0.000145  -0.000923   1.581651  10.598659   4.110470  -0.322769  -0.000627  -0.001444
 -2.344413   0.903451   5.054340  -2.432658 -12.912684   6.954724   0.875998   4.388620  -5.254328   5.516266   0.471789   1.020346  -0.508842   1.155230   4.193235   3.979244   1.775101  26.385144   5.344452  10.401537  24.865997  -0.000298  22.030474  -0.000739  19.716482   1.981435  -2.749738   5.697543   1.162787 -23.905201  10.092630  -3.624966 -32.745959  -0.001297 -21.473281   0.000075   9.951403  -3.512312  -1.281776  12.390695   5.087193 -10.274903  38.831937   0.010915  -0.015166  -1.063805   1.852550   0.635067 -22.613359   0.005948  -0.032508  -7.253679   1.940405  -8.300501   7.305996  -0.000337  -0.000610   1.355058  10.373758   4.395970  -0.211350  -0.000622  -0.001450
 -2.343589   0.904336   5.062716  -2.576365 -12.834049   6.838943   0.956306   4.253595  -5.251303   5.499546   0.423106   1.096030  -0.480641   1.155481   4.246764   3.956341   1.751334  26.287618   5.347150  10.314743  25.045294  -0.000238  21.975487  -0.000678  19.658286   2.021499  -2.701000   5.657735   1.004319 -23.757450  10.009582  -3.665360 -32.687653  -0.001418 -21.676042   0.000267   9.943074  -3.541192  -1.258340  11.544789   4.958299 -10.323351  41.149461   0.008872  -0.019078  -0.719765   1.515942   0.711848 -20.656078   0.006822  -0.037479  -6.465171   1.713265  -8.448261   7.060650  -0.000681  -0.000383   1.132215  10.161302   4.665940  -0.111473  -0.000601  -0.001407
 -2.342855   0.905143   5.071058  -2.714366 -12.759270   6.709000   1.021748   4.113864  -5.240723   5.478235   0.364419   1.175554  -0.454854   1.155396   4.297692   3.939994   1.723725  26.196147   5.352052  10.229263  25.213105  -0.000183  21.922776  -0.000637  19.602096   2.055239  -2.651245   5.614125   0.850796 -23.611998   9.928306  -3.707809 -32.627513  -0.001492 -21.867799   0.000421   9.936772  -3.581932  -1.223948  10.732447   4.842910 -10.374443  43.304643   0.007168  -0.021618  -0.399025   1.202043   0.784821 -18.864814   0.007016  -0.040136  -5.694099   1.494728  -8.566753   6.836300  -0.000907  -0.000223   0.919312   9.960916   4.920162  -0.020919  -0.000569  -0.001337
 -2.342205   0.905865   5.079375  -2.846000 -12.687004   6.569713   1.073074   3.971775  -5.226049   5.452559   0.298062   1.255785  -0.431633   1.155027   4.345745   3.929613   1.692734  26.110642   5.358963  10.145052  25.370145  -0.000131  21.872047  -0.000608  19.547775   2.081155  -2.600531   5.568342   0.703027 -23.470188   9.849449  -3.751121 -32.566529  -0.001521 -22.048647   0.000537   9.932252  -3.630007  -1.180049   9.955598   4.740320 -10.430364  45.308729   0.005809  -0.023083  -0.099965   0.909281   0.854066 -17.225262   0.006825  -0.041056  -4.942410   1.285395  -8.661724   6.636048  -0.001036  -0.000117   0.718840   9.772085   5.159085   0.061673  -0.000533  -0.001251
 -2.341650   0.906575   5.087475  -3.073229 -12.614868   6.379018   1.268124   3.783374  -5.196277   5.438804   0.272337   1.353077  -0.427721   1.134950   4.382316   3.892596   1.665368  25.945694   5.408704  10.112217  25.573433  -0.000105  21.908714  -0.000450  19.497532   2.036760  -2.530676   5.516349   0.502207 -23.273958   9.750859  -3.915800 -32.531950  -0.001582 -22.264618   0.000909   9.929226  -3.577947  -1.184597   9.182206   4.498220 -10.448900  47.249874   0.002660  -0.025754  -0.711920   0.273619   0.813306 -15.795347   0.007963  -0.045823  -4.084889   1.043522  -8.715801   6.384667  -0.001198   0.000021   0.561816   9.318905   5.290796   0.407946  -0.000463  -0.002608
 -2.341154   0.907351   5.095346  -3.280386 -12.352799   6.218867   1.453499   3.526630  -5.187463   5.429640   0.188022   1.448560  -0.417980   1.113773   4.417861   3.862855   1.634588  25.791768   5.456855  10.080294  25.765409  -0.000079  21.945336  -0.000345  19.451212   2.011942  -2.460304   5.423366   0.271997 -23.071630   9.634751  -4.106125 -32.481461  -0.001666 -22.481914   0.001138   9.926109  -3.583466  -1.173891   8.385014   4.231555 -10.418537  49.041110   0.001379  -0.024860  -1.294588  -0.323666   0.767923 -14.551911   0.008492  -0.045761  -3.208816   0.938721  -8.760627   6.088455  -0.001374  -0.000698   0.136601   9.045373   5.417890   0.313928  -0.000401  -0.002088
